HIERARCHY
ROOT SpineBase
{
  OFFSET 0.000000 0.000000 0.000000
  CHANNELS 6 Xposition Yposition Zposition Zrotation Xrotation Yrotation
  JOINT SpineMid
  {
    OFFSET 0.000000 28.582740 0.000000
    CHANNELS 3 Zrotation Xrotation Yrotation
    JOINT SpineShoulder
    {
      OFFSET 0.237874 21.205987 -0.640758
      CHANNELS 3 Zrotation Xrotation Yrotation
      JOINT Neck
      {
        OFFSET 0.142007 7.001841 -0.501976
        CHANNELS 3 Zrotation Xrotation Yrotation
        JOINT Head
        {
          OFFSET 0.635029 14.521237 -0.866214
          CHANNELS 3 Zrotation Xrotation Yrotation
          End Site
          {
            OFFSET 0 0 0
          }
        }
      }
      JOINT ShoulderLeft
      {
        OFFSET -16.667046 -3.112780 -4.298738
        CHANNELS 3 Zrotation Xrotation Yrotation
        JOINT ElbowLeft
        {
          OFFSET -1.311614 -24.021258 -3.269566
          CHANNELS 3 Zrotation Xrotation Yrotation
          JOINT WristLeft
          {
            OFFSET 4.308837 -21.408599 -6.539608
            CHANNELS 3 Zrotation Xrotation Yrotation
            JOINT HandLeft
            {
              OFFSET 1.499124 -4.598383 0.546604
              CHANNELS 3 Zrotation Xrotation Yrotation
              JOINT HandTipLeft
              {
                OFFSET 0.951696 -7.070689 -0.983720
                CHANNELS 3 Zrotation Xrotation Yrotation
                End Site
                {
                  OFFSET 0 0 0
                }
              }
              JOINT ThumbLeft
              {
                OFFSET 3.635022 -0.225938 -0.142022
                CHANNELS 3 Zrotation Xrotation Yrotation
                End Site
                {
                  OFFSET 0 0 0
                }
              }
            }
          }
        }
      }
      JOINT ShoulderRight
      {
        OFFSET 16.586622 -3.535151 3.501356
        CHANNELS 3 Zrotation Xrotation Yrotation
        JOINT ElbowRight
        {
          OFFSET 3.528625 -25.606336 2.545924
          CHANNELS 3 Zrotation Xrotation Yrotation
          JOINT WristRight
          {
            OFFSET 0.826847 -19.119775 -5.319222
            CHANNELS 3 Zrotation Xrotation Yrotation
            JOINT HandRight
            {
              OFFSET -2.796960 -6.491044 -2.719662
              CHANNELS 3 Zrotation Xrotation Yrotation
              JOINT HandTipRight
              {
                OFFSET 1.319946 -5.277562 -0.151813
                CHANNELS 3 Zrotation Xrotation Yrotation
                End Site
                {
                  OFFSET 0 0 0
                }
              }
              JOINT ThumbRight
              {
                OFFSET -1.425744 1.437932 -2.441869
                CHANNELS 3 Zrotation Xrotation Yrotation
                End Site
                {
                  OFFSET 0 0 0
                }
              }
            }
          }
        }
      }
    }
  }
  JOINT HipLeft
  {
    OFFSET -6.635373 0.331387 -4.727889
    CHANNELS 3 Zrotation Xrotation Yrotation
    JOINT KneeLeft
    {
      OFFSET -6.855742 -30.923234 3.210822
      CHANNELS 3 Zrotation Xrotation Yrotation
      JOINT AnkleLeft
      {
        OFFSET -4.541410 -30.819388 3.083339
        CHANNELS 3 Zrotation Xrotation Yrotation
        JOINT FootLeft
        {
          OFFSET -1.481472 -6.240332 -6.460989
          CHANNELS 3 Zrotation Xrotation Yrotation
          End Site
          {
            OFFSET 0 0 0
          }
        }
      }
    }
  }
  JOINT HipRight
  {
    OFFSET 7.960939 0.541320 -1.842861
    CHANNELS 3 Zrotation Xrotation Yrotation
    JOINT KneeRight
    {
      OFFSET 1.781795 -32.042479 3.763984
      CHANNELS 3 Zrotation Xrotation Yrotation
      JOINT AnkleRight
      {
        OFFSET 1.628311 -29.617727 3.822535
        CHANNELS 3 Zrotation Xrotation Yrotation
        JOINT FootRight
        {
          OFFSET 1.856504 -5.578934 -6.179521
          CHANNELS 3 Zrotation Xrotation Yrotation
          End Site
          {
            OFFSET 0 0 0
          }
        }
      }
    }
  }
}
MOTION
Frames: 14
Frame Time: 0.033333
-74.372864 69.455808 399.027935 -0.000000 0.000000 -11.180661 -0.000000 0.000000 11.180661 -0.000000 0.000000 0.000000 -0.000000 0.000000 0.000000 0.000000 0.000000 0.000000 -0.000000 0.000000 0.000000 -0.000000 0.000000 0.000000 -0.000000 0.000000 0.000000 -0.000000 0.000000 0.000000 0.000000 0.000000 0.000000 0.000000 0.000000 0.000000 -0.000000 0.000000 0.000000 -0.000000 0.000000 0.000000 -0.000000 0.000000 0.000000 -0.000000 0.000000 0.000000 0.000000 0.000000 0.000000 0.000000 0.000000 0.000000 -0.000000 0.000000 11.180661 -0.000000 0.000000 0.000000 -0.000000 0.000000 0.000000 0.000000 0.000000 0.000000 -0.000000 0.000000 11.180661 -0.000000 0.000000 0.000000 -0.000000 0.000000 0.000000 0.000000 0.000000 0.000000
-74.414660 69.465449 399.046580 -0.038028 -0.024491 -11.405087 0.032435 0.031527 11.405069 -0.000000 0.000000 0.000000 -0.000000 0.000000 0.000000 0.000000 0.000000 0.000000 -0.593147 -0.827309 0.121711 -1.161846 0.589037 0.381302 0.312342 -0.073028 -0.765412 1.441734 0.317839 0.269987 0.000000 0.000000 0.000000 0.000000 0.000000 0.000000 -0.000000 0.000000 0.000000 -0.752965 0.891193 0.253402 2.404279 -2.141731 -0.360198 -5.324328 1.344491 0.399847 0.000000 0.000000 0.000000 0.000000 0.000000 0.000000 0.032435 0.031527 11.405069 -0.000000 0.000000 0.000000 -0.000000 0.000000 0.000000 0.000000 0.000000 0.000000 0.032435 0.031527 11.405069 -0.000000 0.000000 0.000000 -0.000000 0.000000 0.000000 0.000000 0.000000 0.000000
-74.454883 69.473846 399.064876 -0.078425 -0.048100 -11.599966 0.067151 0.062887 11.599896 -0.000000 0.000000 0.000000 -0.000000 0.000000 0.000000 0.000000 0.000000 0.000000 -1.137635 -1.564329 0.225035 -2.211307 1.076949 0.752537 0.853852 0.123571 -1.348839 1.230063 0.775624 0.652680 0.000000 0.000000 0.000000 0.000000 0.000000 0.000000 -0.959438 0.930542 0.040711 -0.332111 0.690315 0.400205 4.117339 -3.973509 -0.465937 -9.186928 2.824485 0.861363 0.000000 0.000000 0.000000 0.000000 0.000000 0.000000 0.067151 0.062887 11.599896 -0.000000 0.000000 0.000000 1.003826 0.177471 -1.083518 0.000000 0.000000 0.000000 0.067151 0.062887 11.599896 -0.000000 0.000000 0.000000 -0.678511 0.008808 0.755961 0.000000 0.000000 0.000000
-74.493532 69.480999 399.082823 -0.121190 -0.070828 -11.765054 0.104203 0.094051 11.764894 -0.000000 0.000000 0.000000 -0.000000 0.000000 0.000000 0.000000 0.000000 0.000000 -1.635707 -2.213463 0.312504 -3.111314 1.472663 1.091450 1.600309 0.575483 -1.734636 1.185162 0.339158 0.732471 0.000000 0.000000 0.000000 0.000000 0.000000 0.000000 -1.304513 1.270816 0.060050 -0.310520 0.920279 0.505645 5.107490 -5.476026 -0.357209 -11.771731 4.421690 1.291595 0.000000 0.000000 0.000000 0.000000 0.000000 0.000000 0.104203 0.094051 11.764894 -0.000000 0.000000 0.000000 1.428323 0.269056 -1.546857 0.000000 0.000000 0.000000 0.104203 0.094051 11.764894 -0.000000 0.000000 0.000000 -0.916304 0.005108 1.019344 0.000000 0.000000 0.000000
-74.530609 69.486908 399.100421 -0.166326 -0.092674 -11.900137 0.143641 0.124979 11.899846 -0.000000 0.000000 0.000000 -0.000000 0.000000 0.000000 0.000000 0.000000 0.000000 -2.089366 -2.776976 0.386316 -3.829577 1.785909 1.378131 2.526843 1.272430 -1.914396 0.694174 -0.659279 0.628994 0.000000 0.000000 0.000000 0.000000 0.000000 0.000000 -1.556447 1.524721 0.076319 -0.166325 1.079228 0.547200 5.316901 -6.635034 -0.057585 -13.160103 6.133091 1.609298 0.000000 0.000000 0.000000 0.000000 0.000000 0.000000 0.143641 0.124979 11.899846 -0.000000 0.000000 0.000000 1.781749 0.362665 -1.937256 0.000000 0.000000 0.000000 0.143641 0.124979 11.899846 -0.000000 0.000000 0.000000 -1.085288 -0.002669 1.205030 0.000000 0.000000 0.000000
-74.566112 69.491572 399.117670 -0.213831 -0.113636 -12.005025 0.185519 0.155627 12.004561 -0.000000 0.000000 0.000000 -0.000000 0.000000 0.000000 0.000000 0.000000 0.000000 -2.500390 -3.256942 0.448371 -4.340137 2.026335 1.595992 3.610334 2.208974 -1.886901 -0.255062 -2.222263 0.318336 0.000000 0.000000 0.000000 0.000000 0.000000 0.000000 -1.713542 1.690763 0.088224 0.098839 1.169918 0.524584 4.652202 -7.437327 0.429307 -13.338568 7.956106 1.732732 0.000000 0.000000 0.000000 0.000000 0.000000 0.000000 0.185519 0.155627 12.004561 -0.000000 0.000000 0.000000 2.051178 0.458154 -2.240865 0.000000 0.000000 0.000000 0.185519 0.155627 12.004561 -0.000000 0.000000 0.000000 -1.184858 -0.013851 1.312339 0.000000 0.000000 0.000000
-74.612586 69.496314 399.134733 -0.276703 -0.139979 -12.026810 0.241463 0.194562 12.026062 -0.000000 0.000000 0.000000 -0.000000 0.000000 0.000000 0.000000 0.000000 0.000000 -2.979735 -3.745583 0.514359 -4.284802 2.379785 1.657398 5.040185 3.422703 -1.520392 -1.878802 -5.220308 -0.493722 0.000000 0.000000 0.000000 0.000000 0.000000 0.000000 -1.589807 1.731737 0.104966 0.986544 0.950910 0.221269 0.748414 -7.422816 1.747819 -10.649194 12.241404 1.754304 0.000000 0.000000 0.000000 0.000000 0.000000 0.000000 0.241463 0.194562 12.026062 -0.000000 0.000000 0.000000 2.191509 0.416520 -2.377635 0.000000 0.000000 0.000000 0.241463 0.194562 12.026062 -0.000000 0.000000 0.000000 -1.220404 -0.227697 1.280945 0.000000 0.000000 0.000000
-74.653922 69.496552 399.156299 -0.317361 -0.154902 -12.055151 0.278013 0.217766 12.054193 -0.000000 0.000000 0.000000 -0.000000 0.000000 0.000000 0.000000 0.000000 0.000000 -3.367665 -4.073870 0.563053 -4.217960 2.488148 1.667666 6.489679 4.948022 -1.048717 -4.952873 -7.734405 -1.314793 0.000000 0.000000 0.000000 0.000000 0.000000 0.000000 -1.360607 1.625088 0.108299 1.222767 1.013856 0.081376 -2.698164 -7.815626 3.029736 -7.271656 15.060836 1.012628 0.000000 0.000000 0.000000 0.000000 0.000000 0.000000 0.278013 0.217766 12.054193 -0.000000 0.000000 0.000000 2.269788 0.564363 -2.494136 0.000000 0.000000 0.000000 0.278013 0.217766 12.054193 -0.000000 0.000000 0.000000 -1.200266 -0.318638 1.228172 0.000000 0.000000 0.000000
-74.679177 69.496195 399.173995 -0.366232 -0.174375 -12.082125 0.321623 0.247166 12.080874 -0.000000 0.000000 0.000000 -0.000000 0.000000 0.000000 0.000000 0.000000 0.000000 -3.570566 -4.219043 0.587001 -4.189830 2.330680 1.623567 8.002407 6.753608 -0.482042 -6.165955 -10.289670 -2.406073 0.000000 0.000000 0.000000 0.000000 0.000000 0.000000 -1.316194 1.544251 0.099977 1.766149 0.989535 -0.077564 -6.198374 -7.972419 4.216442 -3.835159 15.388065 -0.436051 0.000000 0.000000 0.000000 0.000000 0.000000 0.000000 0.321623 0.247166 12.080874 -0.000000 0.000000 0.000000 2.212605 0.801279 -2.489826 0.000000 0.000000 0.000000 0.321623 0.247166 12.080874 -0.000000 0.000000 0.000000 -1.014268 -0.232432 1.049503 0.000000 0.000000 0.000000
-74.693110 69.499243 399.186972 -0.422385 -0.190428 -12.149607 0.372850 0.275054 12.148010 -0.000000 0.000000 0.000000 -0.000000 0.000000 0.000000 0.000000 0.000000 0.000000 -3.716143 -4.348956 0.604459 -4.105254 2.377361 1.605309 9.255320 8.711158 0.157973 -7.290176 -11.964052 -3.426795 0.000000 0.000000 0.000000 0.000000 0.000000 0.000000 -1.391206 1.456253 0.080276 2.292543 0.998631 -0.184862 -9.055645 -6.804732 4.679386 0.450696 14.868331 -1.229216 0.000000 0.000000 0.000000 0.000000 0.000000 0.000000 0.372850 0.275054 12.148010 -0.000000 0.000000 0.000000 2.117744 0.859960 -2.404446 0.000000 0.000000 0.000000 0.372850 0.275054 12.148010 -0.000000 0.000000 0.000000 -0.832400 -0.222464 0.850249 0.000000 0.000000 0.000000
-74.702076 69.504658 399.192356 -0.460223 -0.211882 -12.223757 0.404933 0.304515 12.221830 -0.000000 0.000000 0.000000 -0.000000 0.000000 0.000000 0.000000 0.000000 0.000000 -3.658897 -4.526397 0.603001 -4.325766 2.622793 1.704610 10.418497 10.356309 0.660210 -7.675614 -13.873061 -4.410859 0.000000 0.000000 0.000000 0.000000 0.000000 0.000000 -1.648509 1.450751 0.057071 2.956909 0.943705 -0.268464 -13.420897 -5.656617 5.662558 5.498888 11.551775 -3.204819 0.000000 0.000000 0.000000 0.000000 0.000000 0.000000 0.404933 0.304515 12.221830 -0.000000 0.000000 0.000000 1.897254 0.844867 -2.170789 0.000000 0.000000 0.000000 0.404933 0.304515 12.221830 -0.000000 0.000000 0.000000 -0.650917 -0.019944 0.715729 0.000000 0.000000 0.000000
-74.694264 69.506304 399.192838 -0.531137 -0.226401 -12.373082 0.470296 0.334943 12.370658 -0.000000 0.000000 0.000000 -0.811939 0.605346 -0.070618 0.000000 0.000000 0.000000 -3.586903 -4.526046 0.596027 -4.465789 2.667525 1.755188 10.719722 11.769546 1.085861 -7.478599 -14.692534 -4.959942 0.000000 0.000000 0.000000 0.000000 0.000000 0.000000 -1.789451 1.375116 0.033160 2.961498 0.870684 -0.212910 -14.128332 -4.449434 5.596246 5.687151 10.907473 -2.875909 0.000000 0.000000 0.000000 0.000000 0.000000 0.000000 0.470296 0.334943 12.370658 -0.000000 0.000000 0.000000 1.643555 0.706100 -1.873807 0.000000 0.000000 0.000000 0.470296 0.334943 12.370658 -0.000000 0.000000 0.000000 -0.536721 0.071750 0.619247 0.000000 0.000000 0.000000
-74.654136 69.508819 399.189492 -0.639554 -0.257557 -12.598979 0.567987 0.390842 12.595604 -0.000000 0.000000 0.000000 -1.067702 0.630256 -0.085375 0.000000 0.000000 0.000000 -3.564031 -4.481408 0.592729 -4.390878 2.785229 1.763967 10.345733 12.643635 1.421323 -8.199037 -13.509840 -5.031706 0.000000 0.000000 0.000000 0.000000 0.000000 0.000000 -1.831910 1.243095 0.009059 2.963583 0.922363 -0.186457 -14.447481 -4.918791 5.903656 6.383705 14.115380 -2.403505 0.000000 0.000000 0.000000 0.000000 0.000000 0.000000 0.567987 0.390842 12.595604 -0.000000 0.000000 0.000000 1.616747 0.479774 -1.792784 0.000000 0.000000 0.000000 0.567987 0.390842 12.595604 -0.000000 0.000000 0.000000 -0.518180 0.152391 0.625381 0.000000 0.000000 0.000000
-74.594132 69.510162 399.182957 -0.794841 -0.312387 -12.874177 0.705282 0.481602 12.869046 -0.000000 0.000000 0.000000 -1.236163 0.576500 -0.092718 0.000000 0.000000 0.000000 -3.743655 -4.436448 0.609154 -4.053800 2.779781 1.681519 9.963164 12.708429 1.497870 -5.724618 -13.474988 -4.797673 0.000000 0.000000 0.000000 0.000000 0.000000 0.000000 -1.831486 1.025307 -0.024505 2.437923 1.277897 -0.013315 -10.888467 -4.781099 4.658655 2.668716 12.790190 -1.465944 0.000000 0.000000 0.000000 0.000000 0.000000 0.000000 0.705282 0.481602 12.869046 -0.000000 0.000000 0.000000 1.621877 0.344478 -1.766293 0.000000 0.000000 0.000000 0.705282 0.481602 12.869046 -0.000000 0.000000 0.000000 -0.000000 0.000000 0.000000 0.000000 0.000000 0.000000
